name C:\Users\u0101727\Documents\MyRepositories\upper-imu-dc\Results\main_tracking\Case_44\FLX01_linearAccelerations_groundFrame.mot
datacolumns 4
datarows 94
range 5.01000000 5.94000000
endheader 
time	radius_imu_x	radius_imu_y	radius_imu_z	
          5.01000000	          0.12590338	         11.07689850	         -1.88054175	
          5.02000000	          0.16953469	         11.08780180	         -1.85885680	
          5.03000000	          0.21530655	         11.10297207	         -1.84882729	
          5.04000000	          0.23789205	         11.10379577	         -1.79362026	
          5.05000000	          0.27464608	         11.10737010	         -1.76870129	
          5.06000000	          0.31583884	         11.09955802	         -1.72607706	
          5.07000000	          0.33756216	         10.96370511	         -1.82518290	
          5.08000000	         -0.15859567	         10.53519775	         -1.05602846	
          5.09000000	          0.22867426	         10.74108339	         -1.62274389	
          5.10000000	          0.17273922	         10.71120236	         -1.33052541	
          5.11000000	          1.19272817	          9.34546563	         -3.76671350	
          5.12000000	          0.21213037	         10.04913547	         -1.98187850	
          5.13000000	          0.42743149	         10.16621827	         -2.21798243	
          5.14000000	          0.33188319	         10.20211259	         -2.07715740	
          5.15000000	          0.30733959	         10.26266022	         -2.00383805	
          5.16000000	          0.27374172	         10.32673768	         -1.91529023	
          5.17000000	          0.23616010	         10.37553897	         -1.82668640	
          5.18000000	          0.18643523	         10.40801719	         -1.72882470	
          5.19000000	          0.13438607	         10.43593334	         -1.62708047	
          5.20000000	          0.08241482	         10.46364361	         -1.52498438	
          5.21000000	          0.03047366	         10.49192965	         -1.42020476	
          5.22000000	         -0.02144158	         10.52029507	         -1.31200551	
          5.23000000	         -0.07313122	         10.54761068	         -1.20225002	
          5.24000000	         -0.12449305	         10.57311901	         -1.09121146	
          5.25000000	         -0.17510035	         10.59665364	         -0.98000069	
          5.26000000	         -0.22412813	         10.61807258	         -0.87033013	
          5.27000000	         -0.27164991	         10.63658202	         -0.76293122	
          5.28000000	         -0.31867894	         10.65086547	         -0.65816209	
          5.29000000	         -0.36591102	         10.65989260	         -0.55664163	
          5.30000000	         -0.41345198	         10.66328009	         -0.45928644	
          5.31000000	         -0.46128378	         10.66108067	         -0.36681742	
          5.32000000	         -0.50939513	         10.65367794	         -0.27955982	
          5.33000000	         -0.55756732	         10.64181596	         -0.19766495	
          5.34000000	         -0.60529781	         10.62652791	         -0.12120038	
          5.35000000	         -0.65189588	         10.60901990	         -0.05015565	
          5.36000000	         -0.69659939	         10.59049381	          0.01557227	
          5.37000000	         -0.73872401	         10.57193624	          0.07613469	
          5.38000000	         -0.77776884	         10.55398105	          0.13159934	
          5.39000000	         -0.81343958	         10.53686037	          0.18185907	
          5.40000000	         -0.84564269	         10.52045913	          0.22662043	
          5.41000000	         -0.87442011	         10.50447918	          0.26545290	
          5.42000000	         -0.89984759	         10.48863133	          0.29789489	
          5.43000000	         -0.92197415	         10.47276286	          0.32356277	
          5.44000000	         -0.94080421	         10.45688510	          0.34220121	
          5.45000000	         -0.95631802	         10.44112018	          0.35369008	
          5.46000000	         -0.96851586	         10.42562707	          0.35804036	
          5.47000000	         -0.97743013	         10.41056558	          0.35538513	
          5.48000000	         -0.98309905	         10.39610233	          0.34597356	
          5.49000000	         -0.98553538	         10.38243377	          0.33017188	
          5.50000000	         -0.98469538	         10.36980751	          0.30845808	
          5.51000000	         -0.98046823	         10.35851916	          0.28140802	
          5.52000000	         -0.97269525	         10.34887886	          0.24966888	
          5.53000000	         -0.96120291	         10.34117494	          0.21393952	
          5.54000000	         -0.94584073	         10.33563206	          0.17494751	
          5.55000000	         -0.92648419	         10.33242693	          0.13346653	
          5.56000000	         -0.90305188	         10.33168201	          0.09031789	
          5.57000000	         -0.87553840	         10.33344751	          0.04637345	
          5.58000000	         -0.84404623	         10.33768404	          0.00253585	
          5.59000000	         -0.80881133	         10.34423784	         -0.04032352	
          5.60000000	         -0.77016563	         10.35288730	         -0.08136437	
          5.61000000	         -0.72847758	         10.36339813	         -0.11975730	
          5.62000000	         -0.68406683	         10.37562124	         -0.15462533	
          5.63000000	         -0.63720025	         10.38948751	         -0.18506858	
          5.64000000	         -0.58819704	         10.40486581	         -0.21026680	
          5.65000000	         -0.53751199	         10.42147986	         -0.22968944	
          5.66000000	         -0.48579381	         10.43884869	         -0.24324653	
          5.67000000	         -0.43389008	         10.45626698	         -0.25121541	
          5.68000000	         -0.38278183	         10.47288607	         -0.25415382	
          5.69000000	         -0.33335025	         10.48798396	         -0.25287323	
          5.70000000	         -0.28628251	         10.50103724	         -0.24815726	
          5.71000000	         -0.24214884	         10.51159545	         -0.24068548	
          5.72000000	         -0.20099360	         10.51977898	         -0.23085805	
          5.73000000	         -0.16285186	         10.52561907	         -0.21880212	
          5.74000000	         -0.12747741	         10.52947110	         -0.20422640	
          5.75000000	         -0.09452734	         10.53176313	         -0.18718502	
          5.76000000	         -0.06393074	         10.53260333	         -0.16740590	
          5.77000000	         -0.03573376	         10.53204186	         -0.14502566	
          5.78000000	         -0.00994073	         10.53019142	         -0.12032476	
          5.79000000	          0.01321563	         10.52689287	         -0.09359159	
          5.80000000	          0.03356446	         10.52207027	         -0.06514434	
          5.81000000	          0.05109924	         10.51575530	         -0.03546652	
          5.82000000	          0.06591549	         10.50795606	         -0.00504531	
          5.83000000	          0.07822338	         10.49868507	          0.02553010	
          5.84000000	          0.08841885	         10.48801985	          0.05558265	
          5.85000000	          0.09706803	         10.47608769	          0.08446301	
          5.86000000	          0.10490114	         10.46308236	          0.11162273	
          5.87000000	          0.11279937	         10.44927828	          0.13667305	
          5.88000000	          0.12170970	         10.43499005	          0.15937880	
          5.89000000	          0.13251951	         10.42050581	          0.17958672	
          5.90000000	          0.14595813	         10.40604366	          0.19715677	
          5.91000000	          0.16251289	         10.39173215	          0.21192464	
          5.92000000	          0.18233611	         10.37759831	          0.22365985	
          5.93000000	          0.20526007	         10.36356564	          0.23198405	
          5.94000000	          0.23071426	         10.34941764	          0.23630623	
